<?xml version="1.0" encoding="utf-8"?>
<!-- Generator: Adobe Illustrator 25.4.0, SVG Export Plug-In . SVG Version: 6.00 Build 0)  -->
<svg version="1.1" id="Capa_1" xmlns="http://www.w3.org/2000/svg" xmlns:xlink="http://www.w3.org/1999/xlink" x="0px" y="0px"
	 viewBox="0 0 512 512" style="enable-background:new 0 0 512 512;" xml:space="preserve">
<style type="text/css">
	.st0{fill:#02A3EE;}
</style>
<g>
	<g id="Layer_2_87_">
		<path class="st0" d="M476.59,205.81c-6.57-4.41-12.51-9.71-17.64-15.73c0.38-8.39,2.07-16.67,5-24.54
			c5.51-18.66,12.37-41.87-0.85-60.04c-13.32-18.31-37.66-18.93-57.21-19.43c-8.23,0.33-16.45-0.56-24.42-2.63
			c-4.38-6.87-7.73-14.35-9.93-22.2c-6.52-18.58-14.65-41.71-36.42-48.78C314,5.6,295.05,18.64,278.33,30.11
			c-6.72,5.36-14.26,9.6-22.33,12.55c-8.08-2.95-15.62-7.19-22.34-12.55C216.95,18.63,198,5.63,176.88,12.47
			c-21.76,7.07-29.88,30.19-36.42,48.77c-2.2,7.81-5.51,15.26-9.82,22.12c-7.99,2.13-16.26,3.04-24.53,2.7
			c-19.55,0.5-43.89,1.11-57.21,19.43c-13.23,18.18-6.36,41.4-0.85,60.05c2.9,7.83,4.6,16.05,5.05,24.39
			c-5.11,6.11-11.07,11.46-17.69,15.89C19.63,217.84,0,232.82,0,256s19.63,38.16,35.41,50.19c6.57,4.41,12.51,9.71,17.64,15.73
			c-0.38,8.39-2.07,16.67-5,24.54c-5.51,18.66-12.37,41.88,0.85,60.04c13.32,18.31,37.66,18.93,57.21,19.43
			c8.23-0.33,16.45,0.56,24.42,2.63c4.38,6.87,7.73,14.35,9.93,22.2c6.53,18.58,14.66,41.71,36.42,48.78
			c3.86,1.26,7.89,1.91,11.95,1.91c16.38,0,31.34-10.28,44.84-19.55c6.72-5.36,14.26-9.6,22.33-12.56
			c8.08,2.95,15.62,7.19,22.34,12.55c16.71,11.48,35.67,24.47,56.79,17.65c21.76-7.07,29.88-30.19,36.42-48.77
			c2.2-7.81,5.51-15.26,9.82-22.12c7.99-2.13,16.26-3.04,24.53-2.7c19.55-0.5,43.89-1.11,57.21-19.43
			c13.23-18.18,6.36-41.4,0.85-60.05c-2.9-7.83-4.6-16.05-5.05-24.39c5.11-6.11,11.07-11.46,17.69-15.89
			C492.37,294.15,512,279.18,512,256C512,232.82,492.37,217.84,476.59,205.81L476.59,205.81z M351.08,217.75L244.42,324.41
			c-8.33,8.33-21.83,8.33-30.16,0.01c0,0,0,0-0.01-0.01l-53.33-53.33c-8.44-8.22-8.61-21.73-0.38-30.17
			c8.22-8.44,21.73-8.61,30.17-0.38c0.13,0.13,0.26,0.25,0.38,0.38l38.25,38.25l91.58-91.58c8.22-8.44,21.73-8.61,30.17-0.38
			c8.44,8.22,8.61,21.73,0.38,30.17C351.34,217.49,351.21,217.62,351.08,217.75z"/>
	</g>
</g>
</svg>
