<?xml version="1.0" encoding="utf-8"?>
<!-- Generator: Adobe Illustrator 25.4.0, SVG Export Plug-In . SVG Version: 6.00 Build 0)  -->
<svg version="1.1" id="Layer_1" xmlns="http://www.w3.org/2000/svg" xmlns:xlink="http://www.w3.org/1999/xlink" x="0px" y="0px"
	 viewBox="0 0 293.77 293.67" style="enable-background:new 0 0 293.77 293.67;" xml:space="preserve">
<g id="etherscan-logo-circle" transform="translate(-219.378 -213.33)">
	<path id="Path_1" d="M280.43,353.15c0-6.88,5.57-12.45,12.45-12.45c0.02,0,0.04,0,0.06,0l20.74,0.07c6.89,0,12.47,5.58,12.47,12.47
		c0,0,0,0,0,0v78.41c2.34-0.69,5.33-1.43,8.61-2.2c4.69-1.1,8.01-5.29,8.01-10.11v-97.27c0-6.89,5.58-12.47,12.47-12.47h20.78
		c6.88,0,12.47,5.58,12.47,12.47v90.28c0,0,5.2-2.11,10.27-4.24c3.85-1.63,6.35-5.4,6.35-9.58V290.9c0-6.88,5.58-12.47,12.46-12.47
		c0,0,0,0,0,0h20.78c6.89,0,12.47,5.58,12.47,12.47v88.62c18.01-13.05,36.27-28.76,50.76-47.64c4.27-5.57,5.47-12.9,3.18-19.54
		c-20.09-58.54-74.76-98.15-136.64-99.01c-81.44-1.09-148.74,65.38-148.74,146.83c-0.08,25.77,6.65,51.11,19.5,73.45
		c3.62,6.24,10.52,9.82,17.71,9.17c3.93-0.35,8.83-0.83,14.64-1.52c5.24-0.6,9.2-5.03,9.21-10.31L280.43,353.15"/>
	<path id="Path_2" d="M279.98,478.91c65.57,47.7,157.38,33.21,205.08-32.35c18.26-25.1,28.1-55.35,28.09-86.39
		c0-3.38-0.16-6.72-0.38-10.05C459.13,430.12,360.08,467.52,279.98,478.91"/>
</g>
</svg>
