<?xml version="1.0" encoding="utf-8"?>
<!-- Generator: Adobe Illustrator 25.4.0, SVG Export Plug-In . SVG Version: 6.00 Build 0)  -->
<svg version="1.1" id="Layer_1" xmlns="http://www.w3.org/2000/svg" xmlns:xlink="http://www.w3.org/1999/xlink" x="0px" y="0px"
	 viewBox="0 0 500 500" style="enable-background:new 0 0 500 500;" xml:space="preserve">
<style type="text/css">
	.st0{fill-rule:evenodd;clip-rule:evenodd;fill:#181616;}
</style>
<path class="st0" d="M249.98,7.49C112.69,7.49,1.35,118.81,1.35,256.15C1.35,366,72.59,459.2,171.4,492.08
	c12.43,2.28,16.97-5.4,16.97-11.99c0-5.9-0.22-21.54-0.34-42.29c-69.17,15.03-83.76-33.33-83.76-33.33
	c-11.31-28.72-27.61-36.37-27.61-36.37c-22.58-15.43,1.71-15.11,1.71-15.11c24.95,1.76,38.09,25.62,38.09,25.62
	c22.18,38,58.2,27.03,72.36,20.66c2.26-16.07,8.68-27.03,15.79-33.24c-55.21-6.28-113.26-27.61-113.26-122.89
	c0-27.14,9.69-49.34,25.59-66.72c-2.56-6.29-11.09-31.57,2.44-65.81c0,0,20.88-6.69,68.38,25.49c19.83-5.52,41.1-8.27,62.25-8.37
	c21.12,0.1,42.39,2.85,62.25,8.37c47.47-32.18,68.31-25.49,68.31-25.49c13.57,34.23,5.03,59.51,2.47,65.81
	c15.94,17.38,25.56,39.58,25.56,66.72c0,95.52-58.14,116.54-113.53,122.7c8.93,7.68,16.88,22.85,16.88,46.05
	c0,33.24-0.31,60.06-0.31,68.21c0,6.65,4.48,14.39,17.1,11.96c98.72-32.95,169.9-126.08,169.9-235.9
	C498.65,118.81,387.31,7.49,249.98,7.49z"/>
</svg>
